# xmcd CD database file
#
# Track frame offsets:
#	150
#	9430
#	26485
#	37660
#	57612
#	65350
#	84265
#	104432
#	114762
#	130375
#	145532
#	156027
#
# Disc length: 2468 seconds
#
# Revision: 3
# Processed by: cddbd v1.5.2PL0 Copyright (c) Steve Scherf et al.
# Submitted via: CDex 1.70beta3
#
DISCID=8b09a20c
DTITLE=虹輪夢七 - 星に願いを ～ ディズニー・コレクション
DYEAR=1998
DGENRE=Relaxing
TTITLE0=星に願いを
TTITLE1=美女と野獣
TTITLE2=ララルー
TTITLE3=愛を感じて
TTITLE4=いつか王子様が
TTITLE5=ホール・ニュー・ワールド
TTITLE6=夢はひそかに
TTITLE7=不思議の国のアリス
TTITLE8=右から2番目の星
TTITLE9=いつか夢の中で
TTITLE10=小さな世界
TTITLE11=メイン・ストリート・エレクトリカル・パレード
EXTD=YEAR: 1998
EXTT0=
EXTT1=
EXTT2=
EXTT3=
EXTT4=
EXTT5=
EXTT6=
EXTT7=
EXTT8=
EXTT9=
EXTT10=
EXTT11=
PLAYORDER=
